<svg xmlns="http://www.w3.org/2000/svg" viewBox="0 0 62.56 24.25" fill="#ebebeb"><g id="Layer_2" data-name="Layer 2" fill="#ebebeb"><g id="Layer_1-2" data-name="Layer 1"><path d="M35.64,16.77l0-.11h0C35.62,16.77,35.63,16.8,35.64,16.77Z"/><path d="M25.44,17.31Z"/><path d="M31.64,7.88h0l0,0C31.54,7.8,31.46,7.74,31.64,7.88Z"/><path d="M2.08,8.91V9A.24.24,0,0,0,2.08,8.91Z"/><path d="M4.18,12.56h.05Z"/><path d="M57.53,13.79C53.75,14.38,50,15,46.19,15.55l-4.78.7-.53.07-.28,0-.14,0h-.08l-.14,0-.28,0-.59.08-1.67.21a11,11,0,0,0-.19-3.35l5.69-.76L45,12.38l1-.14H46l.24,0,.54-.07a1.14,1.14,0,0,0,.73-.3,1,1,0,0,0,.29-.72c0-.49-.45-1.1-1-1l-7.21,1-.37,0-.15,0h0l-.76.1-1.4.18a11.92,11.92,0,0,0-3.42-4.66,29,29,0,0,0-10.72-5.4,35.21,35.21,0,0,0-7-1.25A27.72,27.72,0,0,0,8.9.32,11,11,0,0,0,3.41,2.81,11.27,11.27,0,0,0,1.2,5.55,8.2,8.2,0,0,0,0,9.27,5.06,5.06,0,0,0,1,12.5a6.18,6.18,0,0,0,2.78,2.08,12,12,0,0,0,3.47.66,83.41,83.41,0,0,0,11.29-.09L21.45,15a28.24,28.24,0,0,0,.5,2.87l-2.35,0c-3.69,0-7.37-.06-11-.19L7,17.62a1,1,0,0,0-1,1,1,1,0,0,0,1,1c3.82.15,7.64.25,11.46.25,1.34,0,2.68,0,4,0,.07.28.15.57.24.85.27.93.56,1.85.85,2.77a1,1,0,1,0,2-.54c-.33-1-.65-2.09-1-3.14h.38a12.58,12.58,0,0,0,2.19,1.72,10.93,10.93,0,0,0,2.95,1.24,6.29,6.29,0,0,0,4.11-.13,6.09,6.09,0,0,0,3.06-3.81c2.76-.33,5.5-.71,8.25-1.12,3.67-.54,7.33-1.12,11-1.7l1.57-.24a1,1,0,0,0,.71-1.26A1,1,0,0,0,57.53,13.79Zm-22,.16.06.35,0,.18c0,.19,0-.05,0-.06s0,.26,0,.35l0,.41a8.7,8.7,0,0,1,0,1.35.49.49,0,0,1,0,.12h0v0a.22.22,0,0,1,0,.08,1.23,1.23,0,0,1,0,.2c-2.31.25-4.62.46-6.94.6-1,.07-1.93.11-2.89.15l-.14-.15a3,3,0,0,0-.22-.28v0l0,0-.13-.18a11.82,11.82,0,0,1-.76-1.22c-.11-.21-.22-.43-.32-.65l-.06-.13v0h0c0-.09-.07-.19-.11-.28,2.43-.18,4.85-.39,7.27-.65,1.4-.15,2.81-.32,4.21-.5C35.52,13.75,35.55,13.85,35.57,14ZM6.87,3,6.78,3ZM2.49,7.5Zm-.25,3.15,0,.1A.51.51,0,0,1,2.24,10.65Zm7.53,2.67c-1,0-2.1-.06-3.15-.17l-.16,0c-.36-.05-.72-.11-1.07-.19a4.21,4.21,0,0,1-.61-.16l-.55-.2s.07,0-.05,0h0l-.12-.06-.3-.16c-.1-.05-.19-.12-.29-.18l-.11-.08h0l0,0a3.78,3.78,0,0,1-.5-.48l-.12-.14h0c-.09-.14-.18-.26-.26-.4l-.14-.28,0,0,0,0s0-.05,0-.06l-.09-.31c0-.06-.06-.19-.08-.29s0,0,0-.06,0-.15,0-.22V9.34c0-.11,0-.22,0-.34h0V9c0-.06,0-.07,0-.06l0-.14A5.77,5.77,0,0,1,2.31,8c0-.14.09-.27.14-.4l0,0,.12-.25a10.21,10.21,0,0,1,1-1.62l.09-.13.08-.09,0-.08.13-.15c.16-.2.34-.39.52-.58s.34-.33.52-.48L5.19,4l.15-.11a7.64,7.64,0,0,1,1.17-.69L6.78,3l.06,0h.07c.23-.09.46-.18.69-.25A12.92,12.92,0,0,1,9,2.38l.68-.13.26,0h0l.21,0c.52-.05,1-.09,1.55-.11,1.13,0,2.25,0,3.37,0l1.65.12.79.09.38.05h.08l.14,0a35,35,0,0,1,6.44,1.66c.39.13.78.27,1.16.42l.23.1.07,0,.08,0,.53.24a30.13,30.13,0,0,1,3.07,1.64c.41.25.8.51,1.2.78l.47.34.2.15.07,0,0,0h0l0,0h0a12.69,12.69,0,0,1,1.18,1l.38.4c.09.11.19.22.28.34l.14.16a.86.86,0,0,1,.07.1h0a12.48,12.48,0,0,1,.89,1.38c.07.13.15.27.21.41l-.54.07c-3.58.44-7.18.77-10.78,1a.68.68,0,0,0,0-.14h0c0-.05,0-.09,0-.14l0-.36a9.89,9.89,0,0,1,0-1.44,1,1,0,0,0-1-1,1.05,1.05,0,0,0-1,1,18.65,18.65,0,0,0-.09,2.24C17.47,13.2,13.62,13.41,9.77,13.32Zm24.3,7a1.38,1.38,0,0,1-.26.23l0,0-.08.05-.2.12a1.75,1.75,0,0,1-.27.16h0l-.26.08-.18,0-.17,0-.36,0h-.46l-.27,0H31.5c-.26,0-.52-.09-.77-.15a6.36,6.36,0,0,1-.66-.18c-.21-.07-.45-.13-.65-.22a.09.09,0,0,0-.05,0l-.2-.09-.29-.14-.66-.37L28,19.65c2.31-.13,4.62-.33,6.92-.57a6.32,6.32,0,0,1-.47.79l0,.05-.1.11Zm.37-.4v0Z"/><path d="M61.54,13.11a1,1,0,1,0,0,2,1,1,0,0,0,0-2Z"/></g></g></svg>